<svg width="214" height="260" viewBox="0 0 214 260" fill="none" xmlns="http://www.w3.org/2000/svg">
<rect width="214" height="260" fill="#4A2800"/>
<path d="M17.8333 43.3333H196.167M26.75 86.775L26.8391 86.6558M26.75 173.442L26.8391 173.323M53.5 130.108L53.5891 129.989M53.5 216.775L53.5891 216.656M80.25 86.775L80.3392 86.6558M80.25 173.442L80.3392 173.323M107 130.108L107.089 129.989M107 216.775L107.089 216.656M133.75 86.775L133.839 86.6558M133.75 173.442L133.839 173.323M160.5 130.108L160.589 129.989M160.5 216.775L160.589 216.656M187.25 86.775L187.339 86.6558M187.25 173.442L187.339 173.323" stroke="#F4F4F4" stroke-width="1.5" stroke-linecap="round" stroke-linejoin="round"/>
</svg>
