<svg width="91" height="89" viewBox="0 0 91 89" fill="none" xmlns="http://www.w3.org/2000/svg">
<path d="M53.0151 46.0723C50.85 32.2996 48.6812 22.7655 45.4128 18.5268C42.1633 17.47 32.6083 15.9866 29.12 18.5268C25.6544 21.0708 25.135 32.2996 24.7899 37.5951L37.8067 41.8337L47.5778 53.4853H50.8273C51.9117 53.1256 53.8606 51.1565 52.9923 46.0686L53.0151 46.0723Z" fill="#B0DEDE"/>
<path d="M45.0184 34.8027L48.2679 37.9807L49.049 37.2168L45.7995 34.0388L45.0184 34.8027Z" fill="#47443D"/>
<path d="M47.9456 31.9176C47.8414 31.8236 47.7036 31.7733 47.5618 31.7774C47.4201 31.7816 47.2856 31.8399 47.1873 31.9399L42.8534 36.6012C42.7504 36.7021 42.6925 36.8388 42.6925 36.9814C42.6925 37.1239 42.7504 37.2606 42.8534 37.3615C42.9642 37.4537 43.107 37.5008 43.2523 37.4932C43.3976 37.4856 43.5344 37.4239 43.6345 37.3207L47.9684 32.6593C48.1845 32.4479 48.1845 32.1068 47.9456 31.9176Z" fill="#47443D"/>
<path d="M61.7018 20.648V26.6407L60.1662 28.1462C59.7567 28.5368 59.5222 29.0702 59.514 29.6296V33.3602H55.184V27.4268C55.1984 27.1567 55.313 26.9009 55.5063 26.7074L61.7018 20.648Z" fill="#A39F99"/>
<path d="M22.5984 37.5951C22.5984 32.3663 24.8279 23.1882 25.9123 19.313L27.9939 19.8841C26.9095 23.7593 24.7862 32.6778 24.7862 37.5951H22.5984ZM32.5401 28.4874C33.2113 24.8199 34.0378 21.2821 34.599 19.313L36.6806 19.8841C35.8934 22.8522 35.2206 25.8481 34.6635 28.8657C34.0037 32.0919 33.6056 35.3664 33.4729 38.6557H31.3078C31.3078 36.0079 31.8501 32.129 32.5401 28.4874ZM49.2235 24.5863C48.8814 23.4173 48.3937 22.2939 47.7713 21.2413L49.5685 20.0732C50.1979 20.9855 50.7818 22.3835 51.3013 23.9299C51.8625 25.6802 52.3326 27.4528 52.7118 29.2476C53.5308 33.019 54.0958 37.087 54.0958 39.7163H51.9307C51.9307 37.2799 51.3885 33.401 50.5885 29.6926C50.2223 27.969 49.7667 26.2646 49.2235 24.5863Z" fill="#47443D"/>
<path d="M22.5984 14.2919C41.7273 12.5935 51.9307 15.3488 53.0151 18.5268L50.8463 22.7692C45.6252 20.2253 32.7373 20.3105 26.9512 20.648L24.3956 18.9978C23.9383 18.702 23.613 18.2474 23.4856 17.7258L22.6211 14.2956L22.5984 14.2919Z" fill="#FFBC50"/>
<path d="M23.6183 18.3192L23.1633 16.4094C26.955 15.3488 39.1907 15.6677 39.9718 16.4094C42.1406 18.5268 42.1406 20.8594 42.1406 20.8594C36.6806 20.3291 30.485 20.4366 26.9512 20.648H24.79L23.789 18.7419C23.7237 18.6052 23.6729 18.4623 23.6373 18.3155L23.6183 18.3192Z" fill="#47443D"/>
<path d="M50.8273 34.4208C56.6362 34.0573 69.5013 34.2057 74.7224 37.5951C77.2952 39.2749 79.5037 41.4349 81.2213 43.9512C81.2213 43.9512 81.7218 46.5359 79.6175 48.1898L76.8875 50.311H63.8707L61.2696 46.9178C61.0679 46.6548 60.8062 46.4414 60.5054 46.2947C60.2046 46.1479 59.873 46.0718 59.5368 46.0723H51.7373C51.452 46.0852 51.1674 46.0349 50.9048 45.925C50.6422 45.8152 50.4083 45.6488 50.2207 45.4382C49.054 43.9495 48.0045 42.3764 47.0812 40.7323C46.8989 40.4259 46.8048 40.0769 46.8088 39.7225C46.8128 39.368 46.9148 39.0211 47.1039 38.7187C48.0556 37.1946 49.8756 34.4875 50.8273 34.4208Z" fill="#FFBC50"/>
<path d="M57.349 58.7845C61.6791 58.4211 71.6891 56.8747 76.8874 53.4853C78.4458 52.5768 79.3786 51.3716 80.1369 50.3073C82.3019 47.1292 82.0213 44.9673 81.2213 43.9512C76.8874 43.9512 75.0902 46.7695 74.7224 48.1898L63.8669 49.2504L61.2468 46.7065C60.8468 46.3073 60.3015 46.0793 59.7301 46.0723H53.0151C53.0151 46.0723 51.9307 52.4284 50.8501 52.4284H45.4128L41.0789 42.8943L29.12 37.5951L18.2683 38.6557L10.6849 43.9512L42.1634 58.7845H57.349Z" fill="#47443D"/>
<path d="M80.1596 50.311C82.3284 47.1329 82.0251 44.971 81.244 43.9512C79.3368 43.9512 77.9074 44.5037 76.9102 45.2231C76.9102 47.1329 78.4723 49.3987 80.1596 50.3073" fill="#FCFAFD"/>
<path d="M26.5834 38.6557C31.19 38.5746 35.6643 40.1637 39.1444 43.1167C42.6245 46.0698 44.8641 50.1779 45.4318 54.6497C45.4765 54.9149 45.6229 55.1534 45.841 55.3168C46.0592 55.4802 46.3328 55.5561 46.6062 55.5292C46.8797 55.5023 47.1323 55.3745 47.3128 55.1718C47.4933 54.9692 47.5881 54.7069 47.5779 54.4383C46.4934 44.3517 37.4806 36.5345 26.5834 36.5345C23.0342 36.5132 19.5359 37.3609 16.4074 39.0002C13.2789 40.6396 10.6195 43.0185 8.67156 45.9203C8.53722 46.1558 8.49968 46.4326 8.56657 46.6942C8.63345 46.9558 8.79975 47.1827 9.03162 47.3287C9.26348 47.4747 9.54351 47.5288 9.81472 47.48C10.0859 47.4313 10.328 47.2833 10.4916 47.0662C12.2416 44.4609 14.6314 42.3261 17.4424 40.8568C20.2535 39.3876 23.3962 38.6308 26.5834 38.6557Z" fill="#FFBC50"/>
<path d="M71.4729 48.1898C71.4729 47.9085 71.3587 47.6387 71.1553 47.4398C70.9519 47.2409 70.6761 47.1292 70.3885 47.1292C66.4716 47.119 62.6825 48.4914 59.7173 50.9943C56.752 53.4972 54.8098 56.9625 54.2474 60.7536C54.2275 60.8929 54.2358 61.0347 54.2719 61.1708C54.308 61.3069 54.3711 61.4348 54.4577 61.547C54.5444 61.6593 54.6527 61.7538 54.7767 61.825C54.9006 61.8963 55.0377 61.9431 55.1801 61.9625C55.3225 61.982 55.4675 61.9739 55.6067 61.9386C55.7458 61.9033 55.8766 61.8415 55.9913 61.7568C56.1061 61.6721 56.2027 61.5661 56.2756 61.4449C56.3485 61.3236 56.3963 61.1896 56.4162 61.0503C56.9065 57.7695 58.5885 54.7712 61.1544 52.6043C63.7203 50.4373 66.9984 49.2467 70.3885 49.2504C70.6754 49.2494 70.9503 49.1372 71.1528 48.9384C71.3554 48.7396 71.4729 48.4704 71.4729 48.1898Z" fill="#A6A29C"/>
<path d="M53.0796 55.0947C53.0786 54.8141 52.9639 54.5453 52.7606 54.3472C52.5574 54.1491 52.2821 54.0378 51.9952 54.0378H46.6868V56.1553H52.0179C52.3016 56.1495 52.5716 56.0352 52.77 55.8369C52.9685 55.6386 53.0796 55.3722 53.0796 55.0947ZM45.629 55.0947C45.629 55.6881 46.1029 56.1553 46.6906 56.1553V54.0378C46.4037 54.0378 46.1284 54.1491 45.9252 54.3472C45.7219 54.5453 45.6072 54.8141 45.6062 55.0947H45.629Z" fill="#FEBC50"/>
<path d="M60.6174 23.826C60.6174 25.5838 61.0952 27.0041 61.7018 27.0041C62.2858 27.0041 62.7825 25.5838 62.7825 23.826C62.7825 22.0868 62.2896 20.648 61.7018 20.648C61.0952 20.648 60.6174 22.0868 60.6174 23.826Z" fill="#A09B95"/>
<path d="M61.7056 26.5776L61.7473 26.4923C61.8713 26.3259 61.9661 26.1404 62.0278 25.9435C62.2023 25.4355 62.3312 24.6715 62.3312 23.826C62.3312 22.9768 62.2023 22.2352 62.0278 21.7049C61.9547 21.4816 61.8389 21.274 61.6866 21.093L61.5956 21.1746C61.4712 21.3421 61.3763 21.5289 61.315 21.7271C61.1175 22.416 61.023 23.1292 61.0344 23.8446C61.0344 24.6938 61.1406 25.4355 61.315 25.9657C61.379 26.1549 61.4738 26.3327 61.5956 26.4923C61.6197 26.5252 61.6492 26.554 61.6828 26.5776H61.7056ZM61.6828 27.0041C61.0989 27.0041 60.5984 25.5838 60.5984 23.826C60.5984 22.0868 61.0989 20.648 61.6828 20.648C62.2895 20.648 62.7672 22.0868 62.7672 23.826C62.7672 25.5838 62.2895 27.0041 61.6828 27.0041Z" fill="#B2CCC9"/>
<path d="M7.58715 58.9514L7.71986 60.075C7.74431 60.321 7.84433 60.5539 8.00676 60.7432C8.16919 60.9326 8.38642 61.0693 8.62986 61.1356C8.78406 61.1801 8.94962 61.1937 9.12657 61.1764L10.4916 61.028C10.7077 61.9625 11.011 62.8488 11.4016 63.7203L10.211 64.3989C10.0658 64.4795 9.93853 64.5877 9.83673 64.7171C9.73494 64.8465 9.66065 64.9945 9.61825 65.1525C9.57585 65.3104 9.56619 65.475 9.58984 65.6367C9.6135 65.7983 9.66999 65.9537 9.75599 66.0936L10.3399 67.0874C10.5171 67.3631 10.7963 67.561 11.1193 67.6398C11.4423 67.7186 11.7839 67.6722 12.0727 67.5102L13.286 66.8353C13.8282 67.5547 14.4577 68.2333 15.1288 68.8489L14.306 69.9243C14.2066 70.0536 14.1344 70.2008 14.0936 70.3575C14.0527 70.5142 14.044 70.6772 14.068 70.8372C14.092 70.9972 14.1482 71.151 14.2333 71.2897C14.3184 71.4283 14.4307 71.5491 14.5638 71.645L15.5155 72.3199C15.7842 72.5093 16.1178 72.5889 16.4456 72.5419C16.7733 72.4948 17.0694 72.3247 17.2711 72.0677L18.1166 70.9849C18.9394 71.4299 19.8077 71.8341 20.7177 72.1308L20.3916 73.4435C20.3527 73.6037 20.3472 73.7699 20.3755 73.9321C20.4038 74.0944 20.4653 74.2494 20.5563 74.3879C20.6473 74.5264 20.7659 74.6455 20.905 74.7381C21.0442 74.8307 21.201 74.8949 21.3661 74.9269L22.5149 75.1827C22.8458 75.2521 23.1912 75.1904 23.4755 75.011C23.7598 74.8317 23.9598 74.5494 24.0316 74.226L24.3349 72.9132C25.3511 73.0171 26.3685 73.0245 27.3872 72.9355L27.7133 74.2482C27.7656 74.489 27.8909 74.7087 28.0729 74.8787C28.2548 75.0488 28.485 75.1612 28.7333 75.2013C28.8977 75.228 29.0655 75.228 29.23 75.2013L30.3561 74.9491C30.686 74.8781 30.9738 74.6821 31.1564 74.4042C31.339 74.1262 31.4016 73.7888 31.3306 73.4658L31.0272 72.1938C31.96 71.8972 32.8485 71.5164 33.6928 71.0517L34.4739 72.0677C34.6766 72.3292 34.9763 72.5022 35.3083 72.5494C35.6403 72.5965 35.978 72.5141 36.2484 72.3199L37.1811 71.645C37.3187 71.5507 37.4354 71.4302 37.5244 71.2908C37.6133 71.1514 37.6727 70.9959 37.6989 70.8336C37.7251 70.6713 37.7175 70.5055 37.6768 70.3461C37.636 70.1867 37.5629 70.0369 37.4617 69.9058L36.7034 68.9305C37.421 68.2875 38.0736 67.5784 38.6523 66.813L39.7367 67.4472C40.0275 67.616 40.3745 67.6663 40.7029 67.5872C41.0313 67.5081 41.3148 67.306 41.4922 67.0244L42.0989 66.0491C42.2292 65.84 42.2924 65.5974 42.2802 65.3528C42.268 65.1082 42.1811 64.8728 42.0307 64.677C41.9337 64.5444 41.8081 64.4343 41.6629 64.3544L40.5178 63.7203C40.9071 62.8303 41.2104 61.9193 41.4278 60.9872L42.7928 61.1356C43.1249 61.1702 43.4578 61.0763 43.72 60.8739C43.9822 60.6715 44.153 60.3768 44.1957 60.0527L44.3094 58.9106C44.3284 58.7503 44.3148 58.5879 44.2693 58.4327C44.2239 58.2776 44.1475 58.1328 44.0446 58.0067C43.9417 57.8805 43.8143 57.7755 43.6697 57.6977C43.5252 57.6199 43.3663 57.5708 43.2023 57.5533L41.7956 57.405C41.7956 56.4062 41.6869 55.4173 41.4695 54.4383L42.7928 54.0156C43.0313 53.9349 43.2403 53.7875 43.394 53.5918C43.5477 53.396 43.6392 53.1604 43.6573 52.9142C43.6573 52.7659 43.6573 52.5953 43.5928 52.4469L43.225 51.3678C43.1743 51.2096 43.0913 51.0631 42.981 50.9372C42.8707 50.8114 42.7353 50.7087 42.5832 50.6355C42.4311 50.5624 42.2654 50.5202 42.0961 50.5116C41.9268 50.5029 41.7575 50.528 41.5984 50.5854L40.3017 51.0081C39.898 50.1893 39.4182 49.4085 38.8684 48.6756L39.9111 47.767C40.0379 47.6587 40.1411 47.5265 40.2144 47.3783C40.2877 47.2301 40.3297 47.0689 40.3379 46.9044C40.346 46.74 40.3201 46.5756 40.2618 46.4212C40.2035 46.2667 40.1138 46.1254 39.9983 46.0056L39.2172 45.1601C38.9866 44.9201 38.6684 44.7788 38.3319 44.767C37.9953 44.7552 37.6676 44.8738 37.42 45.097L36.3773 45.987C35.6851 45.3916 34.9388 44.8591 34.1478 44.3962L34.7127 43.1687C34.7816 43.02 34.8193 42.8593 34.8237 42.6961C34.8281 42.5329 34.799 42.3705 34.7382 42.2184C34.6775 42.0664 34.5862 41.9278 34.4698 41.8108C34.3534 41.6937 34.2143 41.6007 34.0606 41.537L33.0217 41.0698C32.8693 41.0013 32.7047 40.963 32.5372 40.9569C32.3697 40.9508 32.2026 40.9771 32.0455 41.0343C31.8884 41.0915 31.7444 41.1784 31.6217 41.2902C31.499 41.4019 31.4001 41.5362 31.3306 41.6854L30.7694 42.9128C29.8032 42.6123 28.8086 42.4073 27.8005 42.3009V40.9437C27.801 40.7821 27.7688 40.6219 27.7057 40.4725C27.6425 40.3231 27.5498 40.1875 27.4327 40.0733C27.3157 39.9592 27.1767 39.8689 27.0237 39.8076C26.8708 39.7463 26.707 39.7153 26.5417 39.7162H25.3701C25.0351 39.7162 24.7135 39.8448 24.4745 40.0744C24.2355 40.3039 24.0982 40.6161 24.0923 40.9437V42.3009C23.0919 42.4088 22.105 42.6138 21.1462 42.9128L20.5812 41.6854C20.5159 41.533 20.4198 41.3952 20.2986 41.2801C20.1774 41.1651 20.0336 41.0752 19.876 41.016C19.7183 40.9567 19.55 40.9293 19.3813 40.9354C19.2125 40.9414 19.0467 40.9808 18.8939 41.0512L17.8095 41.537C17.5072 41.6744 17.2719 41.9222 17.1543 42.2272C17.0366 42.5323 17.0459 42.8703 17.1801 43.1687L17.7678 44.3962C16.9711 44.87 16.2164 45.4084 15.5117 46.0056L14.4956 45.097C14.245 44.8766 13.9156 44.7618 13.579 44.7778C13.2424 44.7938 12.9259 44.9392 12.6983 45.1823L11.9172 46.0278C11.8052 46.1472 11.7186 46.287 11.6623 46.4394C11.606 46.5917 11.5812 46.7535 11.5893 46.9152C11.5974 47.077 11.6383 47.2356 11.7096 47.3818C11.7808 47.5281 11.8811 47.659 12.0044 47.767L13.0206 48.6756V48.6978C12.4771 49.442 12.0095 50.2195 11.6177 51.0304L10.2906 50.6039C9.97173 50.5067 9.62671 50.5343 9.32824 50.681C9.02976 50.8276 8.80114 51.0818 8.69053 51.3901L8.29999 52.4692C8.24496 52.6235 8.22207 52.7869 8.23268 52.95C8.24328 53.113 8.28716 53.2723 8.36172 53.4185C8.43629 53.5647 8.54003 53.6949 8.66683 53.8012C8.79363 53.9076 8.94093 53.988 9.10003 54.0378L10.4233 54.4606C10.2072 55.4359 10.12 56.4519 10.0972 57.4495L8.71328 57.5978C8.38145 57.6343 8.07742 57.7964 7.86624 58.0494C7.65506 58.3023 7.55732 58.6261 7.58715 58.9514Z" fill="#47443D"/>
<path d="M12.0044 47.7633L13.0243 48.6756V48.6978L41.75 64.4212L41.6401 64.3544L40.5139 63.698C40.9056 62.8251 41.2104 61.9173 41.4239 60.9873L42.7889 61.1356C43.1217 61.1713 43.4555 61.0779 43.7186 60.8754C43.9816 60.6729 44.1529 60.3775 44.1956 60.0528L44.3056 58.9106C44.3246 58.7506 44.3111 58.5884 44.2659 58.4335C44.2207 58.2786 44.1446 58.134 44.0421 58.0079C43.9396 57.8818 43.8126 57.7767 43.6685 57.6987C43.5244 57.6207 43.3659 57.5713 43.2022 57.5533L41.7917 57.405C41.7917 56.4062 41.683 55.4173 41.4656 54.4383L42.7889 54.0156C43.0281 53.9355 43.238 53.7884 43.3924 53.5926C43.5468 53.3967 43.6389 53.1608 43.6572 52.9142C43.6572 52.7659 43.6572 52.5953 43.589 52.447L43.2212 51.3678C43.1705 51.2101 43.0876 51.064 42.9775 50.9384C42.8674 50.8128 42.7325 50.7104 42.5808 50.6373C42.4291 50.5641 42.2639 50.5218 42.095 50.5129C41.9262 50.504 41.7572 50.5286 41.5983 50.5854L40.2978 51.0081C39.8954 50.1894 39.4169 49.4087 38.8684 48.6756L39.9073 47.767C40.0341 47.6587 40.1372 47.5265 40.2106 47.3783C40.2839 47.2301 40.3259 47.0689 40.334 46.9045C40.3422 46.74 40.3163 46.5756 40.258 46.4212C40.1996 46.2667 40.11 46.1254 39.9945 46.0056L39.2134 45.1601C38.9828 44.9201 38.6646 44.7788 38.328 44.767C37.9915 44.7552 37.6638 44.8738 37.4161 45.097L36.3772 45.987C35.6838 45.3914 34.9363 44.8589 34.1439 44.3962L34.7089 43.1687C34.7777 43.02 34.8155 42.8593 34.8198 42.6961C34.8242 42.5329 34.7952 42.3705 34.7344 42.2185C34.6736 42.0664 34.5824 41.9278 34.466 41.8108C34.3496 41.6937 34.2104 41.6007 34.0567 41.537L33.0178 41.0698C32.7106 40.9328 32.3603 40.9206 32.0439 41.036C31.7275 41.1515 31.4709 41.385 31.3305 41.6854L30.7656 42.9128C29.7993 42.6123 28.8047 42.4074 27.7967 42.301V40.9437C27.7972 40.7824 27.7651 40.6225 27.7022 40.4734C27.6393 40.3243 27.5468 40.1888 27.4302 40.0747C27.3136 39.9606 27.175 39.8702 27.0225 39.8087C26.87 39.7472 26.7066 39.7158 26.5416 39.7163H25.37C25.035 39.7162 24.7134 39.8448 24.4744 40.0744C24.2354 40.304 24.0982 40.6161 24.0922 40.9437V42.301C23.0919 42.4088 22.105 42.6138 21.1461 42.9128L20.5849 41.6854C20.5197 41.5326 20.4234 41.3943 20.302 41.2789C20.1805 41.1635 20.0363 41.0735 19.8782 41.0142C19.7201 40.9549 19.5513 40.9276 19.3821 40.934C19.2129 40.9404 19.0468 40.9803 18.8938 41.0513L17.8132 41.537C17.5109 41.6744 17.2757 41.9222 17.158 42.2272C17.0403 42.5323 17.0496 42.8703 17.1838 43.1687L17.7677 44.3962C16.9724 44.8702 16.219 45.4086 15.5155 46.0056L14.4955 45.097C14.245 44.8766 13.9156 44.7619 13.5789 44.7778C13.2423 44.7938 12.9258 44.9392 12.6983 45.1823L11.9172 46.0278C11.8052 46.1472 11.7185 46.2871 11.6623 46.4394C11.606 46.5917 11.5812 46.7535 11.5893 46.9153C11.5974 47.077 11.6383 47.2356 11.7095 47.3819C11.7808 47.5281 11.881 47.6553 12.0044 47.7633Z" fill="#686259"/>
<path d="M15.4928 57.4273C15.4905 59.8164 16.346 62.1305 17.9101 63.9658C19.4741 65.8011 21.6473 67.0411 24.0506 67.4694C26.4526 67.9107 28.9368 67.525 31.0809 66.3778C33.225 65.2306 34.8969 63.3927 35.8123 61.1764C36.3852 59.773 36.6313 58.2625 36.5327 56.7546C36.4342 55.2466 35.9935 53.779 35.2426 52.4584C34.4918 51.1378 33.4496 49.9973 32.1919 49.1198C30.9341 48.2422 29.4923 47.6497 27.9712 47.3851C25.686 46.9732 23.3258 47.3058 21.2526 48.332C19.1793 49.3583 17.5076 51.0214 16.4938 53.0663C15.8341 54.4309 15.4966 55.9217 15.4966 57.431" fill="#686259"/>
<path d="M17.6389 51.2418L35.8162 61.1801C36.7541 58.878 36.8004 56.3203 35.9466 53.9871C35.0928 51.654 33.3974 49.7059 31.179 48.5087C28.9618 47.3041 26.3763 46.9174 23.8923 47.4189C21.4084 47.9204 19.1871 49.2769 17.6389 51.2418Z" fill="#47443D"/>
<path d="M25.9578 65.2889C23.8325 65.2929 21.7925 64.472 20.2854 63.0064C18.7784 61.5408 17.9275 59.5503 17.9194 57.4718C17.9255 55.3965 18.7726 53.4082 20.2752 51.9428C21.7777 50.4775 23.8131 49.6546 25.935 49.6546C26.9892 49.6492 28.0342 49.8473 29.01 50.2375C29.9858 50.6276 30.8734 51.2022 31.6218 51.9284C32.3703 52.6545 32.9649 53.5179 33.3717 54.4691C33.7784 55.4203 33.9893 56.4407 33.9923 57.4718C33.9893 58.5012 33.779 59.5201 33.3735 60.4701C32.9679 61.4201 32.3749 62.2827 31.6285 63.0086C30.8821 63.7344 29.9968 64.3094 29.0231 64.7007C28.0495 65.092 27.0066 65.2918 25.954 65.2889" fill="#FFBC50"/>
<path d="M25.9995 59.0367C25.7834 59.0352 25.5697 58.9921 25.3706 58.9099C25.1715 58.8277 24.991 58.7079 24.8392 58.5574C24.6875 58.4069 24.5675 58.2287 24.4862 58.0329C24.4049 57.8371 24.3638 57.6275 24.3653 57.4161C24.3668 57.2048 24.4108 56.9958 24.4949 56.8011C24.579 56.6064 24.7014 56.4298 24.8553 56.2814C25.0092 56.133 25.1914 56.0156 25.3916 55.9361C25.5919 55.8566 25.8061 55.8164 26.0222 55.8178C26.4587 55.8178 26.8772 55.9874 27.1858 56.2892C27.4944 56.5911 27.6678 57.0004 27.6678 57.4273C27.6678 57.8541 27.4944 58.2635 27.1858 58.5653C26.8772 58.8671 26.4587 59.0367 26.0222 59.0367H25.9995Z" fill="#47443D"/>
<path d="M25.9578 62.237C26.9284 62.2388 27.8779 61.9604 28.6873 61.4366C29.4967 60.9128 30.13 60.1669 30.5078 59.2925C30.7884 58.6383 30.9154 57.9308 30.8796 57.2222C30.8438 56.5136 30.646 55.8218 30.3008 55.1978C29.9556 54.5738 29.4718 54.0334 28.8849 53.6164C28.298 53.1994 27.623 52.9164 26.9095 52.7881C26.2176 52.6551 25.5045 52.6686 24.8184 52.8277C24.1322 52.9868 23.4889 53.2878 22.9316 53.7105C22.3744 54.1332 21.9163 54.6678 21.588 55.2782C21.2598 55.8886 21.069 56.5607 21.0286 57.2492C20.9948 57.8989 21.0978 58.5483 21.3313 59.1574C21.5648 59.7665 21.9238 60.3221 22.386 60.7898C22.8482 61.2575 23.4037 61.6273 24.0182 61.8762C24.6326 62.1252 25.2928 62.248 25.9578 62.237ZM25.9578 53.5075C26.7626 53.514 27.5479 53.75 28.2174 54.1868C28.8869 54.6235 29.4115 55.242 29.7267 55.9662C29.96 56.5082 30.0663 57.0945 30.0378 57.682C30.0094 58.2695 29.8468 58.8433 29.5622 59.3614C29.2775 59.8795 28.8779 60.3287 28.3926 60.6761C27.9074 61.0235 27.3488 61.2603 26.7578 61.3692C25.9649 61.5191 25.1444 61.4385 24.3977 61.1373C23.6511 60.8361 23.011 60.3275 22.5567 59.6745C22.1452 59.0774 21.9088 58.3814 21.8731 57.6622C21.8375 56.943 22.0039 56.2279 22.3544 55.5947C22.7049 54.9615 23.2261 54.4342 23.8613 54.0702C24.4966 53.7062 25.2216 53.5193 25.9578 53.5298V53.5075Z" fill="#47443D"/>
<path d="M30.1817 52.1317L30.6594 52.599C30.7625 52.6998 30.8203 52.8365 30.8203 52.9791C30.8203 53.1217 30.7625 53.2584 30.6594 53.3592C30.6083 53.4097 30.5475 53.4497 30.4804 53.477C30.4134 53.5044 30.3415 53.5184 30.2689 53.5184C30.1963 53.5184 30.1244 53.5044 30.0573 53.477C29.9903 53.4497 29.9295 53.4097 29.8783 53.3592L29.4006 52.892C29.3472 52.8434 29.3046 52.7845 29.2755 52.7191C29.2464 52.6537 29.2313 52.5832 29.2313 52.5118C29.2313 52.4405 29.2464 52.37 29.2755 52.3046C29.3046 52.2392 29.3472 52.1803 29.4006 52.1317C29.4517 52.0813 29.5125 52.0412 29.5796 52.0139C29.6466 51.9866 29.7185 51.9725 29.7911 51.9725C29.8638 51.9725 29.9357 51.9866 30.0027 52.0139C30.0697 52.0412 30.1306 52.0813 30.1817 52.1317ZM27.9522 54.887L28.4072 55.3506C28.4588 55.4006 28.4997 55.4601 28.5277 55.5256C28.5556 55.5912 28.57 55.6615 28.57 55.7325C28.57 55.8036 28.5556 55.8739 28.5277 55.9394C28.4997 56.005 28.4588 56.0645 28.4072 56.1145C28.3561 56.1649 28.2952 56.205 28.2282 56.2323C28.1612 56.2597 28.0893 56.2737 28.0166 56.2737C27.944 56.2737 27.8721 56.2597 27.8051 56.2323C27.738 56.205 27.6772 56.1649 27.6261 56.1145L27.1483 55.6472C27.0969 55.5976 27.056 55.5384 27.0281 55.4731C27.0002 55.4079 26.9858 55.3379 26.9858 55.2671C26.9858 55.1964 27.0002 55.1264 27.0281 55.0611C27.056 54.9959 27.0969 54.9367 27.1483 54.887C27.1995 54.8366 27.2603 54.7965 27.3273 54.7692C27.3944 54.7419 27.4663 54.7278 27.5389 54.7278C27.6115 54.7278 27.6834 54.7419 27.7504 54.7692C27.8175 54.7965 27.8783 54.8366 27.9294 54.887H27.9522Z" fill="#FFD591"/>
<path d="M57.2845 63.7833L57.3262 64.0577C57.3483 64.2879 57.4408 64.5062 57.5916 64.6841C57.7425 64.8621 57.9446 64.9914 58.1718 65.0553C58.3007 65.0961 58.4751 65.0961 58.604 65.0775L59.2107 65.033C59.3826 65.6931 59.6063 66.3433 59.8818 66.9836L59.3624 67.2803C59.0936 67.4324 58.8972 67.6823 58.8162 67.9755C58.7352 68.2688 58.7762 68.5814 58.9301 68.8452L59.0818 69.1011C59.1599 69.2331 59.2638 69.3488 59.3877 69.4415C59.5116 69.5343 59.6529 69.6022 59.8036 69.6414C59.9543 69.6807 60.1115 69.6905 60.2661 69.6703C60.4207 69.6502 60.5697 69.6004 60.7046 69.5238L61.2241 69.2086C61.6601 69.7167 62.0924 70.2024 62.5701 70.6474L62.1985 71.1369C62.1061 71.2579 62.039 71.3956 62.001 71.5419C61.963 71.6883 61.9548 71.8406 61.977 71.9901C61.9992 72.1395 62.0513 72.2832 62.1303 72.413C62.2093 72.5428 62.3136 72.6561 62.4374 72.7464L62.6763 72.9132C62.9298 73.09 63.2441 73.1626 63.5517 73.1155C63.8593 73.0683 64.1358 72.9052 64.3219 72.6611L64.7124 72.153C65.3191 72.4744 65.9472 72.7427 66.5969 72.9577L66.4452 73.5919C66.4105 73.7397 66.4061 73.8928 66.4321 74.0423C66.4582 74.1918 66.5143 74.3348 66.5971 74.463C66.6799 74.5913 66.7879 74.7022 66.9147 74.7894C67.0416 74.8767 67.1848 74.9385 67.3362 74.9714L67.6168 75.0344C67.9212 75.0978 68.2389 75.0421 68.5019 74.8792C68.7648 74.7163 68.9521 74.4592 69.0235 74.1629L69.1752 73.488C69.9057 73.5548 70.635 73.5548 71.363 73.488L71.5374 74.1667C71.5882 74.3891 71.7054 74.5918 71.8741 74.7489C72.0429 74.9061 72.2557 75.0106 72.4853 75.0492C72.6395 75.074 72.7925 75.069 72.9441 75.0344L73.2285 74.9714C73.5225 74.8958 73.7759 74.7132 73.9366 74.4608C74.0974 74.2085 74.1533 73.9055 74.093 73.6141L73.9413 72.9132C74.5982 72.7067 75.2301 72.4307 75.8258 72.09L76.258 72.6388C76.4464 72.8748 76.7206 73.0308 77.0235 73.0743C77.3264 73.1178 77.6348 73.0455 77.8847 72.8724L78.1235 72.7241C78.2491 72.6355 78.3555 72.5234 78.4366 72.3945C78.5177 72.2655 78.572 72.1221 78.5963 71.9726C78.6206 71.823 78.6145 71.6703 78.5782 71.523C78.542 71.3758 78.4764 71.237 78.3852 71.1147L77.9491 70.5622C78.4471 70.0998 78.9021 69.6054 79.3141 69.0788L79.9435 69.4422C80.2144 69.5971 80.5368 69.6411 80.8407 69.5647C81.1446 69.4884 81.4054 69.2977 81.5664 69.0343L81.6991 68.8044C81.8578 68.5452 81.9058 68.2353 81.8327 67.9418C81.7596 67.6482 81.5713 67.3946 81.3085 67.2358L80.6374 66.8538C80.8952 66.2197 81.1114 65.5856 81.2441 64.9477L82.0669 65.0553C82.3764 65.0857 82.6858 64.9964 82.9289 64.8065C83.1719 64.6166 83.3293 64.3412 83.3674 64.0392L83.4053 63.7611C83.4394 63.4588 83.3496 63.1555 83.1556 62.9178C82.9616 62.6801 82.6792 62.5273 82.3702 62.4928L81.5019 62.4075C81.507 61.7104 81.4349 61.0243 81.2858 60.3494L82.0858 60.0972C82.3795 59.996 82.6211 59.7866 82.7592 59.5137C82.8973 59.2408 82.921 58.9259 82.8252 58.6362L82.738 58.3803C82.6633 58.1644 82.5246 57.975 82.3396 57.8364C82.1546 57.6977 81.9317 57.616 81.6991 57.6015C81.5449 57.5909 81.39 57.611 81.2441 57.6609L80.463 57.913C80.187 57.3367 79.861 56.7846 79.4885 56.2628L80.0952 55.7325C80.3194 55.526 80.4517 55.2417 80.4638 54.9407C80.4758 54.6397 80.3666 54.3462 80.1597 54.1231L79.9625 53.908C79.7505 53.6839 79.4572 53.5498 79.1453 53.5346C78.8335 53.5193 78.528 53.6241 78.2942 53.8264L77.7102 54.3567C77.2253 53.9319 76.7039 53.5485 76.1519 53.2109L76.478 52.5322C76.543 52.3936 76.5789 52.2435 76.5835 52.091C76.5881 51.9385 76.5613 51.7867 76.5047 51.6445C76.4481 51.5023 76.3629 51.3727 76.2541 51.2634C76.1452 51.1541 76.0151 51.0673 75.8713 51.0081L75.6097 50.9006C75.4688 50.8379 75.3167 50.8031 75.162 50.7981C75.0074 50.7931 74.8532 50.818 74.7084 50.8714C74.5636 50.9248 74.4311 51.0057 74.3183 51.1093C74.2055 51.213 74.1148 51.3373 74.0513 51.4754L73.748 52.1317C73.0706 51.9125 72.3736 51.756 71.6663 51.6645V50.9636C71.6645 50.736 71.5936 50.5141 71.4626 50.3259C71.3317 50.1378 71.1466 49.9919 70.9307 49.9067C70.7937 49.851 70.6469 49.822 70.4985 49.8214H70.1952C69.9644 49.8207 69.7385 49.8864 69.5457 50.0104C69.3528 50.1344 69.2016 50.3111 69.1107 50.5186C69.0508 50.6595 69.0211 50.811 69.0235 50.9636V51.6422C68.3035 51.718 67.5925 51.8608 66.9002 52.0687L66.6196 51.4754C66.5586 51.3355 66.4689 51.2094 66.3561 51.1048C66.2432 51.0002 66.1097 50.9193 65.9637 50.8672C65.8186 50.8128 65.6637 50.788 65.5085 50.7944C65.3533 50.8008 65.2011 50.8382 65.0612 50.9043L64.7996 51.0081C64.5201 51.1343 64.3023 51.3627 64.1931 51.6442C64.0839 51.9258 64.092 52.2379 64.2157 52.5137L64.4735 53.107C63.8994 53.4404 63.3563 53.8226 62.8507 54.2492L62.373 53.8264C62.1396 53.6232 61.8338 53.5178 61.5217 53.5331C61.2096 53.5483 60.9161 53.683 60.7046 53.908L60.5112 54.1231C60.3071 54.349 60.2019 54.6442 60.2182 54.9453C60.2345 55.2463 60.3711 55.529 60.5985 55.7325L61.0534 56.1553C60.661 56.6919 60.3136 57.2586 60.0145 57.85L59.4268 57.6609C59.1341 57.5736 58.8182 57.5996 58.5444 57.7334C58.2707 57.8673 58.0599 58.0988 57.9557 58.3803L57.8457 58.6547C57.797 58.798 57.7785 58.9495 57.7916 59.0999C57.8046 59.2504 57.8488 59.3967 57.9215 59.5299C57.9901 59.6647 58.086 59.7845 58.2033 59.882C58.3206 59.9795 58.4569 60.0528 58.604 60.0972L59.169 60.3086C59.0199 61.0083 58.9478 61.7289 58.9529 62.4706L58.3462 62.5336C58.0337 62.5664 57.7471 62.7183 57.5483 62.9564C57.3496 63.1945 57.2548 63.4996 57.2845 63.8056V63.7833Z" fill="#47443D"/>
<path d="M60.5985 55.7326L61.0724 56.1553L81.5853 67.4917C81.5084 67.3918 81.4149 67.3053 81.3086 67.2358L80.6374 66.8538C80.8976 66.2375 81.1007 65.5996 81.2441 64.9478L82.0631 65.0553C82.3728 65.0867 82.6827 64.9977 82.926 64.8076C83.1693 64.6176 83.3265 64.3416 83.3636 64.0392L83.4091 63.7611C83.4432 63.4582 83.3529 63.1545 83.1581 62.9167C82.9633 62.6788 82.6799 62.5264 82.3702 62.4928L81.5019 62.4076C81.5045 61.7104 81.4324 61.0243 81.2858 60.3494L82.0858 60.0973C82.3794 59.9961 82.6208 59.7865 82.7582 59.5134C82.8957 59.2403 82.9184 58.9254 82.8214 58.6362L82.738 58.3803C82.6885 58.2365 82.6103 58.1038 82.5081 57.9897C82.4059 57.8756 82.2815 57.7825 82.1423 57.7156C82.0031 57.6487 81.8517 57.6095 81.6969 57.6001C81.5421 57.5907 81.3869 57.6113 81.2403 57.6609L80.463 57.9131C80.187 57.3367 79.861 56.7846 79.4886 56.2628L80.0952 55.7326C80.3194 55.526 80.4518 55.2417 80.4638 54.9407C80.4759 54.6398 80.3667 54.3462 80.1597 54.1231L79.9625 53.9081C79.7505 53.6839 79.4572 53.5498 79.1454 53.5346C78.8335 53.5193 78.528 53.6241 78.2942 53.8265L77.7103 54.3568C77.2253 53.9319 76.7039 53.5485 76.1519 53.2109L76.4742 52.5323C76.5392 52.3936 76.5751 52.2436 76.5797 52.0911C76.5843 51.9386 76.5575 51.7867 76.5009 51.6445C76.4443 51.5024 76.3591 51.3728 76.2503 51.2634C76.1415 51.1541 76.0113 51.0673 75.8675 51.0081L75.6097 50.9006C75.4688 50.838 75.3167 50.8031 75.162 50.7981C75.0074 50.7931 74.8532 50.8181 74.7084 50.8715C74.5636 50.9249 74.4311 51.0057 74.3183 51.1093C74.2055 51.213 74.1148 51.3374 74.0513 51.4754L73.748 52.1318C73.0706 51.9125 72.3737 51.7561 71.6663 51.6645V50.9636C71.6644 50.6613 71.5407 50.3719 71.3221 50.1582C71.1035 49.9444 70.8076 49.8234 70.4985 49.8215H70.1952C69.8854 49.8224 69.5885 49.943 69.3692 50.1569C69.1498 50.3707 69.0255 50.6607 69.0236 50.9636V51.6423C68.3035 51.718 67.5925 51.8608 66.9002 52.0687L66.6196 51.4754C66.5582 51.3352 66.4679 51.2089 66.3544 51.1042C66.2409 50.9996 66.1066 50.9189 65.9599 50.8672C65.8154 50.8133 65.6612 50.7888 65.5067 50.7952C65.3522 50.8016 65.2006 50.8387 65.0613 50.9043L64.7996 51.0081C64.5201 51.1343 64.3023 51.3627 64.1931 51.6442C64.0839 51.9258 64.092 52.238 64.2157 52.5137L64.4735 53.1071C63.8994 53.4405 63.3563 53.8226 62.8507 54.2492L62.373 53.8265C62.1392 53.6241 61.8336 53.5193 61.5218 53.5346C61.21 53.5498 60.9166 53.6839 60.7046 53.9081L60.5113 54.1231C60.3071 54.349 60.2019 54.6443 60.2182 54.9453C60.2345 55.2463 60.3711 55.529 60.5985 55.7326Z" fill="#686259"/>
<path d="M62.335 62.4706C62.3289 64.3334 63.0044 66.1368 64.2395 67.5549C65.4745 68.973 67.1876 69.9121 69.069 70.2025C70.9487 70.4992 72.8752 70.137 74.5083 69.1796C76.1414 68.2222 77.3762 66.7312 77.9946 64.97C78.5995 63.2127 78.5436 61.302 77.8367 59.5814C77.1298 57.8609 75.8184 56.4435 74.1384 55.5842C72.4515 54.7132 70.5038 54.4544 68.6404 54.8535C66.777 55.2526 65.1181 56.2839 63.9578 57.7647C62.9049 59.1176 62.3336 60.7704 62.3312 62.4706" fill="#47443D"/>
<path d="M62.335 62.4706C62.3315 64.2895 62.9791 66.0523 64.1655 67.453C65.3518 68.8538 67.0021 69.8042 68.8301 70.1394C70.6556 70.4844 72.547 70.2027 74.1848 69.342C75.8227 68.4813 77.1067 67.0942 77.8201 65.415L63.9578 57.7647C62.9049 59.1176 62.3336 60.7704 62.3312 62.4706" fill="#686259"/>
<path d="M70.3468 68.5522C68.6874 68.5532 67.095 67.9118 65.9177 66.768C64.7405 65.6243 64.074 64.0712 64.064 62.4483C64.064 59.0812 66.8812 56.3481 70.3468 56.3481C73.8123 56.3481 76.6295 59.0997 76.6295 62.4483C76.6295 65.8192 73.8123 68.5522 70.3468 68.5522Z" fill="#FFBC50"/>
<path d="M70.3696 64.08C70.0427 64.0809 69.723 63.9866 69.4512 63.8092C69.1793 63.6317 68.9677 63.3791 68.8432 63.0835C68.7188 62.7879 68.6871 62.4628 68.7523 62.1496C68.8175 61.8363 68.9766 61.5492 69.2093 61.3247C69.441 61.0981 69.7363 60.9438 70.0577 60.8812C70.3791 60.8187 70.7122 60.8508 71.015 60.9735C71.3178 61.0961 71.5766 61.3038 71.7586 61.5703C71.9407 61.8368 72.0379 62.1501 72.0379 62.4706C72.0379 63.3606 71.2985 64.08 70.3696 64.08Z" fill="#47443D"/>
<path d="M72.5346 59.7153L73.0086 60.1826C73.0601 60.2325 73.1011 60.292 73.129 60.3576C73.157 60.4232 73.1714 60.4935 73.1714 60.5645C73.1714 60.6355 73.157 60.7059 73.129 60.7714C73.1011 60.837 73.0601 60.8965 73.0086 60.9465C72.9574 60.9969 72.8966 61.037 72.8296 61.0643C72.7626 61.0916 72.6906 61.1057 72.618 61.1057C72.5454 61.1057 72.4735 61.0916 72.4065 61.0643C72.3394 61.037 72.2786 60.9969 72.2275 60.9465L71.7535 60.4792C71.7003 60.4302 71.6581 60.371 71.6293 60.3053C71.6006 60.2395 71.5861 60.1687 71.5867 60.0973C71.5861 60.0258 71.6006 59.955 71.6293 59.8893C71.6581 59.8235 71.7003 59.7643 71.7535 59.7153C71.8566 59.6145 71.9964 59.5579 72.1422 59.5579C72.2879 59.5579 72.4315 59.6145 72.5346 59.7153Z" fill="#FFD591"/>
<path d="M46.8385 39.9276C64.9247 37.8065 73.9185 42.9573 76.7358 45.3937L77.0391 45.0748C74.093 42.5309 64.9702 37.3837 46.7968 39.5049L46.8385 39.9276Z" fill="#FFD48F"/>
<path d="M59.514 33.3602C59.514 33.3602 57.349 31.239 55.184 30.1821V48.1898H59.514V33.3602Z" fill="#47443D"/>
<path d="M59.514 33.3602C59.514 33.3602 57.6296 31.5171 55.6162 30.3935L55.184 30.1821V48.1898H59.514V33.3602ZM59.0818 47.767H55.6162V30.9015C56.8826 31.6457 58.0378 32.5283 59.0818 33.5493V47.767Z" fill="#9F9C95"/>
<path d="M60.6212 41.8337C60.6217 41.5552 60.5659 41.2793 60.457 41.022C60.3482 40.7646 60.1884 40.5308 59.9868 40.334C59.7853 40.1373 59.546 39.9814 59.2826 39.8754C59.0193 39.7693 58.7371 39.7153 58.4523 39.7162H56.2873C56.0015 39.7148 55.7182 39.7684 55.4535 39.874C55.1889 39.9796 54.9482 40.1352 54.745 40.3318C54.5418 40.5284 54.3803 40.7623 54.2695 41.02C54.1588 41.2777 54.101 41.5542 54.0995 41.8337V47.1292C54.0985 47.4077 54.1538 47.6837 54.2622 47.9412C54.3706 48.1988 54.53 48.4328 54.7312 48.63C54.9324 48.8271 55.1714 48.9834 55.4345 49.0898C55.6977 49.1963 55.9798 49.2509 56.2645 49.2504H58.4296C58.7147 49.2514 58.9972 49.1972 59.2607 49.0909C59.5243 48.9847 59.7638 48.8284 59.9654 48.6313C60.167 48.4341 60.3267 48.1999 60.4354 47.9421C60.544 47.6843 60.5994 47.408 60.5984 47.1292V41.8337H60.6212Z" fill="#48453E"/>
<path d="M60.1662 41.8337C60.1662 41.6109 60.1212 41.3902 60.0339 41.1843C59.9466 40.9785 59.8186 40.7915 59.6573 40.6341C59.496 40.4767 59.3045 40.3519 59.0939 40.2669C58.8832 40.182 58.6575 40.1385 58.4296 40.139H56.2683C56.0405 40.1385 55.8147 40.182 55.6041 40.2669C55.3934 40.3519 55.2019 40.4767 55.0406 40.6341C54.8793 40.7915 54.7513 40.9785 54.664 41.1843C54.5767 41.3902 54.5318 41.6109 54.5318 41.8337V47.1292C54.5318 48.0637 55.3128 48.8239 56.2645 48.8239H58.4296C58.6575 48.8244 58.8832 48.7809 59.0939 48.696C59.3045 48.611 59.496 48.4863 59.6573 48.3289C59.8186 48.1715 59.9466 47.9845 60.0339 47.7786C60.1212 47.5728 60.1662 47.3521 60.1662 47.1292V41.8337ZM58.4296 39.7163C58.7144 39.7153 58.9965 39.7694 59.2599 39.8754C59.5232 39.9814 59.7625 40.1373 59.9641 40.334C60.1656 40.5308 60.3254 40.7646 60.4343 41.022C60.5431 41.2793 60.5989 41.5552 60.5984 41.8337V47.1292C60.5994 47.408 60.544 47.6843 60.4354 47.9421C60.3267 48.1999 60.167 48.4341 59.9654 48.6313C59.7638 48.8285 59.5243 48.9847 59.2607 49.0909C58.9972 49.1972 58.7147 49.2514 58.4296 49.2504H56.2683C55.9832 49.2514 55.7008 49.1972 55.4372 49.0909C55.1736 48.9847 54.9341 48.8285 54.7325 48.6313C54.5309 48.4341 54.3712 48.1999 54.2626 47.9421C54.1539 47.6843 54.0985 47.408 54.0995 47.1292V41.8337C54.099 41.5555 54.1547 41.2799 54.2633 41.0228C54.3719 40.7657 54.5314 40.5321 54.7325 40.3354C54.9337 40.1386 55.1725 39.9827 55.4354 39.8764C55.6983 39.7702 55.9801 39.7158 56.2645 39.7163H58.4296Z" fill="#A49F98"/>
</svg>
