<svg width="69" height="76" viewBox="0 0 69 76" fill="none" xmlns="http://www.w3.org/2000/svg">
<g clip-path="url(#clip0_713_142)">
<path d="M34.5 57H49.8333L42.1667 71.7778L34.5 57Z" fill="#3E721D"/>
<path d="M42.0613 10.7012C49.9292 10.7012 63.043 15.0353 63.043 33.8116C63.043 52.592 63.043 56.924 59.1081 56.924C55.1732 56.924 49.9273 52.5899 42.0594 52.5899C34.1914 52.5899 29.0548 56.924 25.0106 56.924C20.6272 56.924 21.0757 39.5897 21.0757 33.8116C21.0776 15.0353 34.1934 10.7012 42.0613 10.7012Z" fill="#292F33"/>
<path d="M35.1287 57.038C37.9385 59.2863 40.8097 59.1069 42.1667 59.1069C43.5237 59.1069 46.3718 59.2863 49.1817 57.038V50.2761H35.1287V57.038Z" fill="#F7DECE"/>
<path d="M35.1172 53.1557C37.076 55.594 39.5064 56.2548 42.1475 56.2548C44.7887 56.2548 47.2209 55.5961 49.1817 53.1557V46.9575H35.1172V53.1557Z" fill="#EEC2AD"/>
<path d="M26.3235 33.1824C26.3235 20.8662 33.3692 10.8828 42.0612 10.8828C50.7495 10.8828 57.7952 20.8662 57.7952 33.1824C57.7952 45.4966 50.7495 54.8952 42.0612 54.8952C33.3692 54.8952 26.3235 45.4966 26.3235 33.1824Z" fill="#F7DECE"/>
<path d="M42.0613 49.7019C38.9831 49.7019 37.3712 48.0257 37.1987 47.8336C36.9711 47.5601 36.8476 47.2007 36.8537 46.8298C36.8599 46.4589 36.9953 46.1047 37.2318 45.8406C37.4684 45.5765 37.7881 45.4227 38.1247 45.4109C38.4614 45.3991 38.7893 45.5303 39.0406 45.7773C39.1077 45.8449 40.0967 46.8139 42.0613 46.8139C44.0508 46.8139 45.0417 45.8153 45.0819 45.7752C45.3339 45.5158 45.6678 45.375 46.0126 45.3829C46.3574 45.3908 46.6858 45.5467 46.9277 45.8175C47.426 46.3853 47.426 47.2762 46.92 47.8336C46.7494 48.0257 45.1394 49.7019 42.0613 49.7019Z" fill="#DF1F32"/>
<path d="M22.4729 40.1111C22.4327 38 22.3886 39.6382 22.3886 39.1295C22.3886 31.9052 26.3235 40.1723 26.3235 35.0276C26.3235 29.8786 28.9455 29.3635 31.5675 26.4755C32.8804 25.0293 35.5024 22.1983 35.5024 22.1983C35.5024 22.1983 42.0593 26.562 47.3052 26.562C52.5492 26.562 57.7971 29.4648 57.7971 35.2429C57.7971 41.021 61.732 31.8989 61.732 39.121C61.732 39.6361 61.6898 38 61.6553 40.1111H63.0334C63.0449 35.8889 63.0449 36.0493 63.0449 33.3513C63.0449 14.573 49.9311 10.7012 42.0612 10.7012C34.1952 10.7012 21.0795 14.4548 21.0795 33.2352C21.0795 34.9093 21.0412 35.8889 21.0948 40.1111H22.4729Z" fill="#292F33"/>
<path d="M35.6653 37.7614C35.2356 37.7592 34.824 37.57 34.5203 37.2351C34.2166 36.9002 34.0453 36.4467 34.0438 35.9733V34.1894C34.0438 33.2078 34.7741 32.4034 35.6653 32.4034C36.0951 32.4051 36.5068 32.5937 36.8109 32.9283C37.115 33.2628 37.2867 33.7161 37.2887 34.1894V35.9733C37.2872 36.4471 37.1157 36.9009 36.8116 37.2359C36.5075 37.5708 36.0954 37.7598 35.6653 37.7614ZM48.6316 37.7614C48.2018 37.7592 47.7903 37.57 47.4866 37.2351C47.1828 36.9002 47.0116 36.4467 47.0101 35.9733V34.1894C47.0101 33.2078 47.7403 32.4034 48.6316 32.4034C49.5228 32.4034 50.2531 33.2078 50.2531 34.1894V35.9733C50.2516 36.4467 50.0803 36.9002 49.7766 37.2351C49.4729 37.57 49.0613 37.7592 48.6316 37.7614Z" fill="#662113"/>
<path d="M43.769 43.2778H40.5298C40.3149 43.2772 40.109 43.1829 39.9571 43.0156C39.8051 42.8482 39.7196 42.6214 39.7191 42.3848V42.0618C39.7191 41.5699 40.0813 41.1667 40.5298 41.1667H43.769C44.2156 41.1667 44.5816 41.5678 44.5816 42.0618V42.3848C44.5806 42.6216 44.4946 42.8484 44.3424 43.0157C44.1901 43.183 43.984 43.2772 43.769 43.2778Z" fill="#C1694F"/>
<path d="M29.601 33.6427C29.601 36.6996 28.1942 39.178 26.4596 39.178C24.725 39.178 23.3182 36.6996 23.3182 33.6427C23.3182 30.5858 24.725 28.1052 26.4596 28.1052C28.1942 28.1031 29.601 30.5837 29.601 33.6427ZM61.0133 33.6427C61.0133 36.6996 59.6083 39.178 57.8718 39.178C56.1373 39.178 54.7304 36.6996 54.7304 33.6427C54.7304 30.5858 56.1353 28.1052 57.8718 28.1052C59.6083 28.1031 61.0133 30.5837 61.0133 33.6427Z" fill="#F7DECE"/>
<path d="M59.4167 58.2139C57.5835 57.4256 55.6346 57.0142 53.6667 57H30.6667C28.6988 57.0142 26.7499 57.4256 24.9167 58.2139C20.6866 60.0189 17.25 63.7323 17.25 68.6111V76H67.0833V68.6111C67.0833 63.7323 63.6487 60.0189 59.4167 58.2139Z" fill="#77B255"/>
<path d="M53.6667 57V72.8333H30.6667V57C28.6988 57.0142 26.7499 57.4256 24.9167 58.2139V76H59.4167V58.2139C57.5835 57.4256 55.6346 57.0142 53.6667 57Z" fill="#226699"/>
<path d="M13.4167 67.0278C13.4167 66.3279 13.1642 65.6567 12.7149 65.1618C12.2656 64.6669 11.6562 64.3889 11.0208 64.3889C10.3854 64.3889 9.77603 64.6669 9.32672 65.1618C8.87742 65.6567 8.625 66.3279 8.625 67.0278V76H13.4167V67.0278Z" fill="#C1694F"/>
<path d="M20.6042 28.5C20.2229 28.5 19.8573 28.6668 19.5877 28.9637C19.3181 29.2607 19.1667 29.6634 19.1667 30.0833V48.0278L19.1705 48.0489C19.1635 50.1489 18.4879 52.1797 17.2614 53.7875C16.0349 55.3954 14.3352 56.4784 12.4583 56.848V30.0833C12.4583 29.6634 12.3069 29.2607 12.0373 28.9637C11.7677 28.6668 11.4021 28.5 11.0208 28.5C10.6396 28.5 10.274 28.6668 10.0044 28.9637C9.73478 29.2607 9.58333 29.6634 9.58333 30.0833V56.8459C7.70582 56.4778 6.00527 55.3952 4.77851 53.7871C3.55175 52.1789 2.8767 50.1472 2.87117 48.0468L2.875 48.0257V30.0812C2.87487 29.8733 2.83757 29.6674 2.76521 29.4754C2.69285 29.2833 2.58686 29.1089 2.45329 28.9619C2.31972 28.815 2.16118 28.6985 1.98672 28.6191C1.81227 28.5396 1.62532 28.4988 1.43654 28.4989C1.24777 28.4991 1.06086 28.5402 0.886508 28.6199C0.71215 28.6996 0.553752 28.8163 0.420357 28.9634C0.286961 29.1105 0.181182 29.2852 0.109057 29.4773C0.0369319 29.6695 -0.000125531 29.8754 3.19474e-07 30.0833V48.0278C0.00226709 50.9712 0.975426 53.8134 2.73835 56.0255C4.50127 58.2375 6.93385 59.6687 9.58333 60.0526V65.4444C9.58333 65.8644 9.73478 66.2671 10.0044 66.564C10.274 66.8609 10.6396 67.0278 11.0208 67.0278C11.4021 67.0278 11.7677 66.8609 12.0373 66.564C12.3069 66.2671 12.4583 65.8644 12.4583 65.4444V60.0526C17.8633 59.2758 22.0417 54.1943 22.0417 48.0278V30.0833C22.0417 29.6634 21.8902 29.2607 21.6206 28.9637C21.351 28.6668 20.9854 28.5 20.6042 28.5Z" fill="#66757F"/>
<path d="M57.5 18.5778C57.5 21.3644 51.5736 23.2222 42.1666 23.2222C32.7577 23.2222 26.8333 21.3644 26.8333 18.5778C26.8333 11.0897 34.5 0 37.0549 0C39.6098 0 41.3156 3.71556 42.1666 3.71556C43.0176 3.71556 44.7216 0 47.2784 0C49.8352 0 57.5 11.0897 57.5 18.5778Z" fill="#C1694F"/>
<path d="M69 16.8889C69 20.387 62.2916 29.5556 42.1666 29.5556C22.0416 29.5556 15.3333 20.387 15.3333 16.8889C15.3333 13.3908 28.405 14.7778 42.1666 14.7778C55.9283 14.7778 69 13.3908 69 16.8889Z" fill="#C1694F"/>
<path d="M57.5 18.5778C57.5 21.3644 51.5736 23.2222 42.1666 23.2222C32.7577 23.2222 26.8333 21.3644 26.8333 18.5778C26.8333 17.3829 27.0288 16.0972 27.3681 14.7778C31.9451 19 52.3882 19 56.9671 14.7862C57.3026 16.1014 57.5 17.385 57.5 18.5778Z" fill="#292F33"/>
</g>
<defs>
<clipPath id="clip0_713_142">
<rect width="69" height="76" fill="white"/>
</clipPath>
</defs>
</svg>
